<?xml version="1.0" encoding="UTF-8"?>
<svg xmlns="http://www.w3.org/2000/svg" xmlns:xlink="http://www.w3.org/1999/xlink" width="12px" height="12px" viewBox="0 0 12 12" version="1.1">
<g id="surface1">
<path style=" stroke:none;fill-rule:nonzero;fill:rgb(100%,75.294118%,60%);fill-opacity:1;" d="M 11.488281 0.457031 C 11.375 0.386719 11.253906 0.335938 11.125 0.3125 C 10.996094 0.289062 10.863281 0.292969 10.734375 0.320312 C 10.605469 0.347656 10.484375 0.398438 10.375 0.472656 C 10.265625 0.546875 10.175781 0.644531 10.101562 0.753906 L 4.5 9.390625 L 1.765625 6.863281 C 1.671875 6.773438 1.558594 6.703125 1.433594 6.660156 C 1.3125 6.613281 1.179688 6.59375 1.050781 6.597656 C 0.785156 6.609375 0.535156 6.722656 0.355469 6.917969 C 0.175781 7.113281 0.078125 7.371094 0.0898438 7.636719 C 0.101562 7.902344 0.214844 8.152344 0.410156 8.332031 L 3.996094 11.648438 C 3.996094 11.648438 4.101562 11.738281 4.148438 11.769531 C 4.257812 11.839844 4.382812 11.890625 4.511719 11.914062 C 4.640625 11.9375 4.773438 11.933594 4.902344 11.90625 C 5.03125 11.878906 5.152344 11.828125 5.257812 11.753906 C 5.367188 11.679688 5.460938 11.585938 5.53125 11.472656 L 11.78125 1.839844 C 11.851562 1.730469 11.902344 1.609375 11.925781 1.480469 C 11.949219 1.351562 11.949219 1.21875 11.921875 1.089844 C 11.894531 0.960938 11.839844 0.839844 11.765625 0.730469 C 11.691406 0.621094 11.597656 0.53125 11.488281 0.457031 Z M 11.488281 0.457031 "/>
</g>
</svg>
