<?xml version="1.0" encoding="UTF-8"?>
<svg xmlns="http://www.w3.org/2000/svg" xmlns:xlink="http://www.w3.org/1999/xlink" width="12px" height="12px" viewBox="0 0 12 12" version="1.1">
<g id="surface1">
<path style=" stroke:none;fill-rule:nonzero;fill:rgb(100%,75.294118%,60%);fill-opacity:1;" d="M 1.984375 0.5625 L 6 4.574219 L 9.992188 0.582031 C 10.082031 0.488281 10.1875 0.414062 10.304688 0.359375 C 10.425781 0.308594 10.550781 0.28125 10.679688 0.28125 C 10.957031 0.28125 11.21875 0.390625 11.414062 0.585938 C 11.609375 0.78125 11.71875 1.042969 11.71875 1.320312 C 11.722656 1.449219 11.699219 1.574219 11.652344 1.691406 C 11.601562 1.808594 11.53125 1.917969 11.4375 2.007812 L 7.394531 6 L 11.4375 10.046875 C 11.609375 10.214844 11.710938 10.441406 11.71875 10.679688 C 11.71875 10.957031 11.609375 11.21875 11.414062 11.414062 C 11.21875 11.609375 10.957031 11.71875 10.679688 11.71875 C 10.546875 11.726562 10.414062 11.703125 10.292969 11.65625 C 10.167969 11.605469 10.054688 11.53125 9.960938 11.4375 L 6 7.425781 L 1.996094 11.429688 C 1.90625 11.519531 1.804688 11.59375 1.6875 11.640625 C 1.570312 11.691406 1.445312 11.71875 1.320312 11.71875 C 1.042969 11.71875 0.78125 11.609375 0.585938 11.414062 C 0.390625 11.21875 0.28125 10.957031 0.28125 10.679688 C 0.277344 10.550781 0.300781 10.425781 0.347656 10.308594 C 0.398438 10.191406 0.46875 10.082031 0.5625 9.992188 L 4.605469 6 L 0.5625 1.953125 C 0.390625 1.785156 0.289062 1.558594 0.28125 1.320312 C 0.28125 1.042969 0.390625 0.78125 0.585938 0.585938 C 0.78125 0.390625 1.042969 0.28125 1.320312 0.28125 C 1.570312 0.28125 1.808594 0.382812 1.984375 0.5625 Z M 1.984375 0.5625 "/>
</g>
</svg>
