<svg class="d-none">
    <symbol id="icon-1" viewBox="0 0 32 32" fill="none" xmlns="http://www.w3.org/2000/svg">
        <path d="M24 13.3333H32L28 8L24 13.3333ZM24 18.6667H32L28 24L24 18.6667Z" fill="#C4B5FD"/>
        <path d="M1.33333 0H9.33333V32H1.33333C0.979711 32 0.640572 31.8595 0.390523 31.6095C0.140475 31.3594 0 31.0203 0 30.6667V1.33333C0 0.979711 0.140475 0.640572 0.390523 0.390523C0.640572 0.140475 0.979711 0 1.33333 0Z" fill="#7C3AED"/>
        <path d="M12 0H20C20.3536 0 20.6928 0.140475 20.9428 0.390523C21.1929 0.640572 21.3333 0.979711 21.3333 1.33333V30.6667C21.3333 31.0203 21.1929 31.3594 20.9428 31.6095C20.6928 31.8595 20.3536 32 20 32H12V0Z" fill="#1DB5BE"/>
    </symbol>
    <symbol id="icon-2" viewBox="0 0 32 32" fill="none" xmlns="http://www.w3.org/2000/svg">
        <path d="M5.33337 1.33333H30.6667L26.6667 9.33333H1.33337L5.33337 1.33333Z" fill="#7C3AED"/>
        <path d="M5.33337 12H30.6667L26.6667 20H1.33337L5.33337 12Z" fill="#1DB5BE"/>
        <path d="M5.33337 22.6667H30.6667L26.6667 30.6667H1.33337L5.33337 22.6667Z" fill="#C4B5FD"/>
    </symbol>
    <symbol id="icon-3" viewBox="0 0 32 32" fill="none" xmlns="http://www.w3.org/2000/svg">
        <path d="M30.6667 7.99999V2.66666C30.6667 2.31304 30.5262 1.9739 30.2762 1.72385C30.0261 1.4738 29.687 1.33333 29.3334 1.33333H2.66671C2.31309 1.33333 1.97395 1.4738 1.7239 1.72385C1.47385 1.9739 1.33337 2.31304 1.33337 2.66666V7.99999H30.6667Z" fill="#1DB5BE"/>
        <path d="M1.33337 10.6667V29.3333C1.33337 29.6869 1.47385 30.0261 1.7239 30.2761C1.97395 30.5262 2.31309 30.6667 2.66671 30.6667H9.33337V10.6667H1.33337Z" fill="#C4B5FD"/>
        <path d="M12 30.6667H29.3333C29.687 30.6667 30.0261 30.5262 30.2761 30.2761C30.5262 30.0261 30.6667 29.6869 30.6667 29.3333V10.6667H12V30.6667Z" fill="#7C3AED"/>
    </symbol>        
    <symbol id="icon-4" viewBox="0 0 32 32" fill="none" xmlns="http://www.w3.org/2000/svg">
        <path d="M28 32H16C15.6464 32 15.3073 31.8595 15.0572 31.6095C14.8072 31.3594 14.6667 31.0203 14.6667 30.6667V28C14.6667 27.6464 14.8072 27.3072 15.0572 27.0572C15.3073 26.8071 15.6464 26.6667 16 26.6667H28C28.3536 26.6667 28.6928 26.8071 28.9428 27.0572C29.1929 27.3072 29.3334 27.6464 29.3334 28V30.6667C29.3334 31.0203 29.1929 31.3594 28.9428 31.6095C28.6928 31.8595 28.3536 32 28 32Z" fill="#C4B5FD"/>
        <path d="M28 0H4.00002C3.6464 0 3.30726 0.140475 3.05721 0.390523C2.80716 0.640572 2.66669 0.979711 2.66669 1.33333V4C2.66669 4.35362 2.80716 4.69276 3.05721 4.94281C3.30726 5.19286 3.6464 5.33333 4.00002 5.33333H28C28.3536 5.33333 28.6928 5.19286 28.9428 4.94281C29.1929 4.69276 29.3334 4.35362 29.3334 4V1.33333C29.3334 0.979711 29.1929 0.640572 28.9428 0.390523C28.6928 0.140475 28.3536 0 28 0Z" fill="#1DB5BE"/>
        <path d="M28 8H4.00002C3.6464 8 3.30726 8.14047 3.05721 8.39052C2.80716 8.64057 2.66669 8.97971 2.66669 9.33333V22.6667C2.66669 23.0203 2.80716 23.3594 3.05721 23.6095C3.30726 23.8595 3.6464 24 4.00002 24H28C28.3536 24 28.6928 23.8595 28.9428 23.6095C29.1929 23.3594 29.3334 23.0203 29.3334 22.6667V9.33333C29.3334 8.97971 29.1929 8.64057 28.9428 8.39052C28.6928 8.14047 28.3536 8 28 8Z" fill="#7C3AED"/>
    </symbol>
    <symbol id="icon-5" viewBox="0 0 30 30" fill="none" xmlns="http://www.w3.org/2000/svg">
        <path d="M5.66671 0.333332H1.66671C1.31309 0.333332 0.973946 0.473807 0.723897 0.723855C0.473849 0.973904 0.333374 1.31304 0.333374 1.66667V28.3333C0.333374 28.687 0.473849 29.0261 0.723897 29.2761C0.973946 29.5262 1.31309 29.6667 1.66671 29.6667H5.66671V0.333332Z" fill="#C4B5FD"/>
        <path d="M8.33337 29.6667H21.6667V0.333332H8.33337V29.6667ZM15 24.3333C14.6464 24.3333 14.3073 24.1929 14.0572 23.9428C13.8072 23.6928 13.6667 23.3536 13.6667 23C13.6667 22.6464 13.8072 22.3072 14.0572 22.0572C14.3073 21.8071 14.6464 21.6667 15 21.6667C15.3537 21.6667 15.6928 21.8071 15.9429 22.0572C16.1929 22.3072 16.3334 22.6464 16.3334 23C16.3334 23.3536 16.1929 23.6928 15.9429 23.9428C15.6928 24.1929 15.3537 24.3333 15 24.3333ZM15 5.66667C15.3537 5.66667 15.6928 5.80714 15.9429 6.05719C16.1929 6.30724 16.3334 6.64638 16.3334 7C16.3334 7.35362 16.1929 7.69276 15.9429 7.94281C15.6928 8.19286 15.3537 8.33333 15 8.33333C14.6464 8.33333 14.3073 8.19286 14.0572 7.94281C13.8072 7.69276 13.6667 7.35362 13.6667 7C13.6667 6.64638 13.8072 6.30724 14.0572 6.05719C14.3073 5.80714 14.6464 5.66667 15 5.66667ZM15 13.6667C15.3537 13.6667 15.6928 13.8071 15.9429 14.0572C16.1929 14.3072 16.3334 14.6464 16.3334 15C16.3334 15.3536 16.1929 15.6928 15.9429 15.9428C15.6928 16.1929 15.3537 16.3333 15 16.3333C14.6464 16.3333 14.3073 16.1929 14.0572 15.9428C13.8072 15.6928 13.6667 15.3536 13.6667 15C13.6667 14.6464 13.8072 14.3072 14.0572 14.0572C14.3073 13.8071 14.6464 13.6667 15 13.6667Z" fill="#7C3AED"/>
        <path d="M28.3334 0.333332H24.3334V29.6667H28.3334C28.687 29.6667 29.0261 29.5262 29.2762 29.2761C29.5262 29.0261 29.6667 28.687 29.6667 28.3333V1.66667C29.6667 1.31304 29.5262 0.973904 29.2762 0.723855C29.0261 0.473807 28.687 0.333332 28.3334 0.333332Z" fill="#1DB5BE"/>
    </symbol>
    <symbol id="icon-6" viewBox="0 0 32 32" fill="none" xmlns="http://www.w3.org/2000/svg">
        <path d="M15.2081 0.176L0.781403 6.916C0.683842 6.96074 0.601194 7.03257 0.543297 7.12295C0.4854 7.21332 0.454694 7.31843 0.454834 7.42576C0.454975 7.53309 0.485955 7.63812 0.544088 7.72834C0.602222 7.81857 0.685058 7.89018 0.782736 7.93467L15.3227 14.6253C15.7521 14.8227 16.2481 14.8227 16.6774 14.6253L31.2174 7.93467C31.3151 7.89031 31.3981 7.8188 31.4563 7.72865C31.5146 7.63851 31.5457 7.53352 31.546 7.42619C31.5463 7.31886 31.5157 7.21371 31.4579 7.12326C31.4001 7.03281 31.3176 6.96087 31.2201 6.916L16.7921 0.176C16.5441 0.060125 16.2738 6.86646e-05 16.0001 6.86646e-05C15.7264 6.86646e-05 15.456 0.060125 15.2081 0.176Z" fill="#7C3AED"/>
        <path opacity="0.64" d="M31.22 15.568L28.24 14.176C28.0266 14.0763 27.794 14.0243 27.5584 14.0236C27.3229 14.0229 27.09 14.0735 26.876 14.172L16.6773 18.8653C16.4649 18.963 16.2338 19.0136 16 19.0136C15.7662 19.0136 15.5351 18.963 15.3227 18.8653L5.12267 14.172C4.90885 14.0737 4.67621 14.0232 4.4409 14.0239C4.20559 14.0246 3.97324 14.0765 3.76001 14.176L0.780006 15.568C0.682503 15.6129 0.599949 15.6848 0.54217 15.7753C0.48439 15.8657 0.453823 15.9709 0.454103 16.0782C0.454384 16.1855 0.485502 16.2905 0.543754 16.3807C0.602006 16.4708 0.684937 16.5423 0.782674 16.5867L15.3227 23.276C15.535 23.3742 15.7661 23.4251 16 23.4251C16.2339 23.4251 16.465 23.3742 16.6773 23.276L31.2173 16.5867C31.3151 16.5423 31.398 16.4708 31.4563 16.3807C31.5145 16.2905 31.5456 16.1855 31.5459 16.0782C31.5462 15.9709 31.5156 15.8657 31.4578 15.7753C31.4001 15.6848 31.3175 15.6129 31.22 15.568Z" fill="#C4B5FD"/>
        <path d="M31.22 24.144L28.24 22.752C28.0266 22.6523 27.794 22.6003 27.5585 22.5996C27.3229 22.5989 27.09 22.6495 26.876 22.748L16.6774 27.44C16.4649 27.5377 16.2338 27.5883 16 27.5883C15.7662 27.5883 15.5351 27.5377 15.3227 27.44L5.12269 22.7467C4.90887 22.6484 4.67623 22.5979 4.44091 22.5986C4.2056 22.5992 3.97326 22.6512 3.76002 22.7507L0.780019 24.144C0.682891 24.189 0.600708 24.261 0.543205 24.3513C0.485701 24.4416 0.455288 24.5465 0.455568 24.6535C0.455849 24.7606 0.486813 24.8653 0.544789 24.9553C0.602765 25.0453 0.685324 25.1168 0.782686 25.1613L15.3227 31.852C15.752 32.0493 16.248 32.0493 16.6774 31.852L31.2174 25.1613C31.3147 25.1168 31.3973 25.0453 31.4553 24.9553C31.5132 24.8653 31.5442 24.7606 31.5445 24.6535C31.5448 24.5465 31.5143 24.4416 31.4568 24.3513C31.3993 24.261 31.3172 24.189 31.22 24.144Z" fill="#1DB5BE"/>
    </symbol>
    <symbol id="icon-7" viewBox="0 0 32 32" fill="none" xmlns="http://www.w3.org/2000/svg">
        <path d="M12 13.8334H2.66671C2.31309 13.8334 1.97395 13.6929 1.7239 13.4429C1.47385 13.1928 1.33337 12.8537 1.33337 12.5V3.16671C1.33337 2.81309 1.47385 2.47395 1.7239 2.2239C1.97395 1.97385 2.31309 1.83337 2.66671 1.83337H12C12.3537 1.83337 12.6928 1.97385 12.9429 2.2239C13.1929 2.47395 13.3334 2.81309 13.3334 3.16671V12.5C13.3334 12.8537 13.1929 13.1928 12.9429 13.4429C12.6928 13.6929 12.3537 13.8334 12 13.8334Z" fill="#7C3AED"/>
        <path d="M12 31.1667H2.66671C2.31309 31.1667 1.97395 31.0263 1.7239 30.7762C1.47385 30.5262 1.33337 30.187 1.33337 29.8334V20.5001C1.33337 20.1465 1.47385 19.8073 1.7239 19.5573C1.97395 19.3072 2.31309 19.1667 2.66671 19.1667H12C12.3537 19.1667 12.6928 19.3072 12.9429 19.5573C13.1929 19.8073 13.3334 20.1465 13.3334 20.5001V29.8334C13.3334 30.187 13.1929 30.5262 12.9429 30.7762C12.6928 31.0263 12.3537 31.1667 12 31.1667Z" fill="#7C3AED"/>
        <path d="M17.3334 3.16675H30.6667V5.83341H17.3334V3.16675Z" fill="#1DB5BE"/>
        <path d="M30.6667 20.5H17.3334V23.1667H30.6667V20.5Z" fill="#1DB5BE"/>
        <path d="M30.6667 27.1667H17.3334V29.8334H30.6667V27.1667Z" fill="#C4B5FD"/>
        <path d="M30.6667 9.83337H17.3334V12.5H30.6667V9.83337Z" fill="#C4B5FD"/>
    </symbol>
</svg>